<svg xmlns="http://www.w3.org/2000/svg" viewBox="0 0 32 32" role="img" aria-label="WhatsApp">
  <path fill="#075E54" d="M16 0C7.163 0 0 7.163 0 16c0 2.827.738 5.49 2.027 7.8L0 32l8.47-1.98C10.65 31.55 13.27 32 16 32c8.837 0 16-7.163 16-16S24.837 0 16 0zm7.07 22.86c-.3.85-1.48 1.58-2.42 1.78-.62.13-1.43.23-4.15-.89-3.41-1.31-5.61-4.47-5.78-4.68-.17-.21-1.38-1.84-1.38-3.51 0-1.67.87-2.49 1.18-2.83.3-.34.66-.43.88-.43.22 0 .44.01.63.03.2.02.47-.08.74.56.27.65.92 2.24 1 2.41.08.17.13.37.02.6-.11.22-.17.36-.34.55-.17.19-.36.43-.52.58-.17.15-.35.31-.15.61.2.3.89 1.47 1.91 2.38 1.31 1.17 2.41 1.53 2.75 1.7.34.17.54.15.74-.09.2-.24.85-1 .99-1.34.14-.34.28-.28.74-.17.46.11 2.93 1.38 3.43 1.63.5.25.83.37.95.58.12.21.12 1.22-.18 2.07z"/>
</svg>